<svg xmlns="http://www.w3.org/2000/svg" viewBox="0 0 705.62 171.05">
<path d="M96.72,369.23l-10.61,61.1H47.69l22.5-128.06h30l32.2,60,10.43-60h38.42L158.73,430.33H128.92Z" transform="translate(-47.69 -300.26)"/>
<path d="M262.65,334.11H302l-85.43,137.2h-37L210.88,421l-24.7-86.89h41.16l8,49.21Z" transform="translate(-47.69 -300.26)"/>
<path d="M363.09,418.44c-6.59,8.6-17.38,13.91-29.82,13.91-25.61,0-41.53-21-36.41-50.13S325.4,332.1,351,332.1c12.44,0,21.4,5.3,24.88,14.08l2.2-12.07h37.68l-16.83,96.22H361.26Zm-14.45-14.82c11,0,19.2-9.32,21.4-21.4s-2.93-21.41-13.9-21.41-19.4,9.34-21.59,21.41S337.66,403.62,348.64,403.62Z" transform="translate(-47.69 -300.26)"/>
<path d="M464.25,391.18l-6.76,39.15H419.07l22.5-128.06h62.2c29.82,0,42.08,21,37.68,45.56S517.67,391.18,488,391.18Zm5.31-30.55h19.76c6.58,0,12.62-6.22,13.72-12.44,1.28-6.77-2.56-13-9.15-13H474.13Z" transform="translate(-47.69 -300.26)"/>
<path d="M546.21,366.31c6.41-35.68,37.69-66.05,80.86-66.05s63.85,30.37,57.45,66.05-37.69,66-80.86,66S539.81,402,546.21,366.31Zm99.89,0c3.29-17.93-5.49-33.12-25.06-33.12s-33.11,15.19-36.41,33.12,5.31,33.11,24.88,33.11S642.81,384.23,646.1,366.31Z" transform="translate(-47.69 -300.26)"/>
<path d="M713.61,395.58c11.89,0,19.94,7.86,17.93,18.65-1.83,10.43-12.44,18.12-24.33,18.12-12.26,0-19.76-7.69-17.93-18.12C691.29,403.44,701.35,395.58,713.61,395.58Zm-10.25-10.8,2.38-70.61,2.2-11.9h45.37l-2.2,11.9-22.5,70.61Z" transform="translate(-47.69 -300.26)"/>
</svg>